<?xml version="1.0" encoding="UTF-8" standalone="no"?>
<svg
   xmlns:osb="http://www.openswatchbook.org/uri/2009/osb"
   xmlns:dc="http://purl.org/dc/elements/1.1/"
   xmlns:cc="http://creativecommons.org/ns#"
   xmlns:rdf="http://www.w3.org/1999/02/22-rdf-syntax-ns#"
   xmlns:svg="http://www.w3.org/2000/svg"
   xmlns="http://www.w3.org/2000/svg"
   xmlns:xlink="http://www.w3.org/1999/xlink"
   xmlns:sodipodi="http://sodipodi.sourceforge.net/DTD/sodipodi-0.dtd"
   xmlns:inkscape="http://www.inkscape.org/namespaces/inkscape"
   width="402.32773"
   height="220.8"
   viewBox="0 0 402.32773 220.8"
   version="1.1"
   preserveAspectRatio="xMidYMid"
   id="svg4600"
   sodipodi:docname="vue-wind.svg"
   inkscape:version="0.92.5 (2060ec1f9f, 2020-04-08)">
  <metadata
     id="metadata4604">
    <rdf:RDF>
      <cc:Work
         rdf:about="">
        <dc:format>image/svg+xml</dc:format>
        <dc:type
           rdf:resource="http://purl.org/dc/dcmitype/StillImage" />
        <dc:title></dc:title>
      </cc:Work>
    </rdf:RDF>
  </metadata>
  <sodipodi:namedview
     pagecolor="#ffffff"
     bordercolor="#666666"
     borderopacity="1"
     objecttolerance="10"
     gridtolerance="10"
     guidetolerance="10"
     inkscape:pageopacity="0"
     inkscape:pageshadow="2"
     inkscape:window-width="1920"
     inkscape:window-height="1019"
     id="namedview4602"
     showgrid="false"
     showborder="true"
     inkscape:zoom="1.2998047"
     inkscape:cx="138.88421"
     inkscape:cy="153.0972"
     inkscape:window-x="0"
     inkscape:window-y="0"
     inkscape:window-maximized="1"
     inkscape:current-layer="svg4600"
     fit-margin-top="0"
     fit-margin-left="0"
     fit-margin-right="0"
     fit-margin-bottom="0" />
  <defs
     id="defs4594">
    <linearGradient
       id="linearGradient6065"
       osb:paint="solid"
       gradientTransform="matrix(1.4866067,0,0,1.4790038,370.91892,246.6536)">
      <stop
         style="stop-color:#35495e;stop-opacity:1;"
         offset="0"
         id="stop6063" />
    </linearGradient>
    <linearGradient
       id="linearGradient6059"
       osb:paint="solid"
       gradientTransform="matrix(0.67322495,0,0,0.67322495,54.36081,84.509377)">
      <stop
         style="stop-color:#ffffff;stop-opacity:1;"
         offset="0"
         id="stop6057" />
    </linearGradient>
    <linearGradient
       x1="-5.5082426"
       y1="63.45496"
       x2="198.29675"
       y2="133.96048"
       id="linearGradient-1"
       gradientTransform="scale(1.2909944,0.77459667)"
       gradientUnits="userSpaceOnUse">
      <stop
         stop-color="#2298BD"
         offset="0%"
         id="stop4589" />
      <stop
         stop-color="#0ED7B5"
         offset="100%"
         id="stop4591" />
    </linearGradient>
    <linearGradient
       inkscape:collect="always"
       xlink:href="#linearGradient-1"
       id="linearGradient5914"
       x1="159.93895"
       y1="105.03909"
       x2="-171.90717"
       y2="-36.403522"
       gradientUnits="userSpaceOnUse" />
    <linearGradient
       inkscape:collect="always"
       xlink:href="#linearGradient-1"
       id="linearGradient6147"
       gradientTransform="matrix(1.4866067,0,0,1.4790038,370.91892,246.6536)"
       x1="-108.22456"
       y1="-66.897392"
       x2="-10.931103"
       y2="-51.81221" />
  </defs>
  <g
     id="g6009"
     transform="translate(64.894835,71.186116)">
    <path
       id="path5865"
       d="m -64.894835,-71.186116 128,220.799996 127.999995,-220.799996 h -51.2 l -76.799995,132.48 -77.44,-132.48 z"
       inkscape:connector-curvature="0"
       style="fill:url(#linearGradient5914);fill-opacity:1" />
    <path
       id="path5867"
       d="m -14.334835,-71.186116 77.44,133.12 76.799995,-133.12 H 92.545165 l -29.44,51.2 -30.08,-51.2 z"
       inkscape:connector-curvature="0"
       style="fill:#35495e" />
  </g>
  <circle
     style="opacity:1;vector-effect:none;fill:none;fill-opacity:1;fill-rule:nonzero;stroke:none;stroke-width:0.80576378;stroke-linecap:butt;stroke-linejoin:miter;stroke-miterlimit:4;stroke-dasharray:none;stroke-dashoffset:0;stroke-opacity:1;paint-order:fill markers stroke"
     id="path6055"
     cx="198.17731"
     cy="155.52226"
     r="64.874847" />
  <path
     inkscape:connector-curvature="0"
     style="fill:url(#linearGradient6147);stroke:none;stroke-width:0.78149921;stroke-opacity:1;fill-opacity:1"
     id="path4596"
     d="m 302.03907,99.349667 c -26.74365,0 -43.45842,13.303423 -50.14433,39.910323 10.02887,-13.30345 21.72922,-18.29224 35.10103,-14.96638 7.62937,1.89758 13.08247,7.40409 19.11838,13.49967 9.83275,9.92954 21.2129,21.42184 46.06926,21.42184 26.74365,0 43.45844,-13.30342 50.14433,-39.9103 -10.02888,13.30344 -21.7292,18.29224 -35.10103,14.96638 -7.62938,-1.8976 -13.08248,-7.40412 -19.11836,-13.49966 C 338.2756,110.842 326.89543,99.349667 302.03907,99.349667 Z m -50.14433,59.865453 c -26.74366,0 -43.45843,13.30346 -50.14434,39.91032 10.02887,-13.30345 21.72922,-18.29224 35.10104,-14.96635 7.62937,1.89758 13.08247,7.40409 19.11836,13.49965 9.83274,9.92953 21.21289,21.42186 46.06927,21.42186 26.74365,0 43.45842,-13.30344 50.14434,-39.9103 -10.02886,13.30342 -21.72922,18.29222 -35.10105,14.96638 -7.62937,-1.89761 -13.08247,-7.40415 -19.11837,-13.49969 -9.83275,-9.92954 -21.21289,-21.42187 -46.06925,-21.42187 z" />
</svg>
